<?xml version="1.0" encoding="UTF-8"?>
<svg width="980" height="260" viewBox="0 0 980 260" fill="none" xmlns="http://www.w3.org/2000/svg">
  <rect x="0" y="0" width="980" height="260" rx="18" fill="#0F172A"/>
  <rect x="20" y="20" width="940" height="220" rx="14" fill="#111827" stroke="#1F2937"/>
  <text x="40" y="55" fill="#E5E7EB" font-family="Segoe UI, Arial" font-size="18" font-weight="700">
    Online Directory Create Expert — Workflow
  </text>

  <g font-family="Segoe UI, Arial" font-size="12" fill="#E5E7EB">
    <rect x="40" y="80" width="130" height="60" rx="10" fill="#1F2937"/>
    <text x="55" y="105">Niche Discovery</text>
    <text x="55" y="122">+ Brief</text>

    <rect x="190" y="80" width="130" height="60" rx="10" fill="#1F2937"/>
    <text x="205" y="105">Data Collection</text>
    <text x="205" y="122">(Registry/</text>
    <text x="205" y="138">Web/Phone)</text>

    <rect x="340" y="80" width="130" height="60" rx="10" fill="#1F2937"/>
    <text x="355" y="105">Clean +</text>
    <text x="355" y="122">Deduplicate</text>

    <rect x="490" y="80" width="130" height="60" rx="10" fill="#1F2937"/>
    <text x="505" y="105">Verify</text>
    <text x="505" y="122">Evidence</text>

    <rect x="640" y="80" width="130" height="60" rx="10" fill="#1F2937"/>
    <text x="655" y="105">Enrich</text>
    <text x="655" y="122">Inventory/</text>
    <text x="655" y="138">Features</text>

    <rect x="790" y="80" width="130" height="60" rx="10" fill="#1F2937"/>
    <text x="805" y="105">Handoff</text>
    <text x="805" y="122">Package</text>
  </g>

  <g stroke="#22C55E" stroke-width="2">
    <line x1="170" y1="110" x2="190" y2="110"/>
    <line x1="320" y1="110" x2="340" y2="110"/>
    <line x1="470" y1="110" x2="490" y2="110"/>
    <line x1="620" y1="110" x2="640" y2="110"/>
    <line x1="770" y1="110" x2="790" y2="110"/>
  </g>
</svg>
